# xmcd CD database file
#
# Track frame offsets:
#	225
#	19562
#	38836
#	47421
#	64521
#	79899
#	101612
#	114665
#	133503
#	151195
#	170683
#	183690
#	203890
#	215483
#	241951
#
# Disc length: 3431 seconds
#
# Revision: 0
# Processed by: cddbd v1.5.2PL0 Copyright (c) Steve Scherf et al.
# Submitted via: CDex 1.51
#
DISCID=c80d640f
DTITLE=Various Artist - Rick Fowler And Friends - 2000 Welcome Companions
DYEAR=2000
DGENRE=Blues
TTITLE0=Destiny Blues
TTITLE1=Profit Off The Lord
TTITLE2=Riviera Map
TTITLE3=Can't Say No
TTITLE4=Dr Jack
TTITLE5=Walk Softly
TTITLE6=Hymn Of Doubt
TTITLE7=Infected With The Blues
TTITLE8=House Of Pain
TTITLE9=Anything But This
TTITLE10=Shes A Good Boy
TTITLE11=Paralysed
TTITLE12=Make Me Feel At Home
TTITLE13=Black Snake Moan
TTITLE14=Potion 99
EXTD=YEAR: 2000
EXTT0=
EXTT1=
EXTT2=
EXTT3=
EXTT4=
EXTT5=
EXTT6=
EXTT7=
EXTT8=
EXTT9=
EXTT10=
EXTT11=
EXTT12=
EXTT13=
EXTT14=
PLAYORDER=
